Coordinates
version=1
nRows=24
nColumns=19
inDegrees=yes

Units are S.I. units (second, meters, Newtons, ...)
If the header above contains a line with 'inDegrees', this indicates whether rotational values are in degrees (yes) or radians (no).

endheader
time	pelvis_tilt	pelvis_list	pelvis_rotation	pelvis_tx	pelvis_ty	pelvis_tz	hip_flexion_r	hip_adduction_r	hip_rotation_r	knee_angle_r	knee_angle_r_beta	ankle_angle_r	hip_flexion_l	hip_adduction_l	hip_rotation_l	knee_angle_l	knee_angle_l_beta	ankle_angle_l
     10.98666667	      0.43423495	     -9.16752131	     -2.20816596	      2.19078697	      1.10037482	      1.04760203	     23.30004253	     12.81723777	     -6.70418502	     16.03467201	      0.27985782	      6.20644311	    -23.42196118	    -12.79881778	    -17.12371727	     51.80235250	      0.90412161	    -20.71978813
     10.99333333	      0.99288267	     -9.74217965	     -2.52222860	      2.19047912	      1.09627779	      1.04844833	     22.74785209	     13.35206904	     -7.38012532	     17.55781849	      0.30644174	      5.59906653	    -22.88720426	    -13.49231627	    -16.69705274	     55.63442515	      0.97100390	    -21.17098335
     11.00000000	      0.86978215	    -10.17616939	     -2.88960355	      2.18981116	      1.09115676	      1.04927493	     23.21233847	     13.65592301	     -8.23218390	     19.83943073	      0.34626339	      5.14121049	    -21.38756890	    -14.02473283	    -15.94206282	     59.67268243	      1.04148478	    -21.54115643
     11.00666667	      0.95573649	    -10.63241276	     -3.40374554	      2.18870059	      1.08595991	      1.05007832	     23.57504722	     13.97437529	     -8.92700169	     22.57991172	      0.39409380	      4.97985133	    -20.12814332	    -14.51479229	    -15.46331937	     63.63944137	      1.11071779	    -21.79142628
     11.01333333	      1.09846491	    -11.11444445	     -3.99967881	      2.18726296	      1.08064840	      1.05080742	     23.92493307	     14.31700079	     -9.43892973	     25.59059481	      0.44664014	      5.06832464	    -18.90829117	    -14.97737714	    -15.08463281	     67.54070308	      1.17880765	    -21.82932498
     11.02000000	      1.71838627	    -11.81883351	     -4.59322779	      2.18551121	      1.07576191	      1.05132674	     23.68076702	     14.88707988	     -9.74363753	     28.58544024	      0.49891005	      5.51059335	    -18.27578754	    -15.65491764	    -14.99811968	     71.28396471	      1.24413989	    -21.57617658
     11.02666667	      1.41179297	    -12.17346777	     -5.33867002	      2.18330634	      1.06984356	      1.05204251	     24.50762093	     15.18812161	     -9.77394105	     31.80108854	      0.55503370	      6.29394339	    -16.38379212	    -16.01000642	    -14.58738493	     75.18553964	      1.31223522	    -20.94167553
     11.03333333	      1.61723637	    -12.80786374	     -6.05148545	      2.18087323	      1.06465386	      1.05256616	     24.57755456	     15.82047659	     -9.58895594	     34.71306765	      0.60585732	      7.41423975	    -15.13364937	    -16.66625503	    -14.44724741	     78.87382151	      1.37660788	    -19.98999323
     11.04000000	      2.34833644	    -13.60393101	     -6.60194408	      2.17813072	      1.06033275	      1.05276228	     23.89223615	     16.58701414	     -9.30195222	     37.30336903	      0.65106661	      8.84641049	    -14.43498153	    -17.45093434	    -14.30365894	     82.34440013	      1.43718090	    -18.71749580
     11.04666667	      2.00142931	    -14.26869624	     -7.29031940	      2.17525891	      1.05518369	      1.05321020	     24.25132274	     17.38206996	     -8.87575468	     39.70397861	      0.69296515	     10.38882850	    -12.35890259	    -18.28880414	    -13.89545785	     85.93892340	      1.49991717	    -17.13187391
     11.05333333	      2.10830463	    -15.01134482	     -7.74952635	      2.17223278	      1.05100136	      1.05326329	     23.90304554	     18.17864752	     -8.48401371	     41.70489073	      0.72788766	     12.13972134	    -10.67123481	    -19.14575502	    -13.29161904	     89.28760479	      1.55836268	    -15.38294712
     11.06000000	      2.14580681	    -15.76928436	     -8.03474413	      2.16917039	      1.04737074	      1.05309701	     23.41748783	     18.96315423	     -8.15142255	     43.29516165	      0.75564312	     13.90548580	     -8.72784765	    -20.03774720	    -12.37934845	     92.47515709	      1.61399597	    -13.51673475
     11.06666667	      2.06327150	    -16.44664189	     -8.14362912	      2.16619237	      1.04417203	      1.05274389	     22.88537150	     19.61987645	     -7.92515451	     44.54526136	      0.77746148	     15.66984170	     -6.42571768	    -20.83381072	    -11.09423394	     95.49264812	      1.66666112	    -11.73381055
     11.07333333	      1.95947638	    -17.08993995	     -8.02181651	      2.16335789	      1.04159328	      1.05213256	     22.17675920	     20.17674498	     -7.82227994	     45.38058414	      0.79204061	     17.33436143	     -3.87576324	    -21.53879139	     -9.42708588	     98.28891820	      1.71546524	    -10.02956393
     11.08000000	      1.69783675	    -17.55230544	     -7.75054864	      2.16063209	      1.03946853	      1.05135540	     21.49478524	     20.51106008	     -7.80525360	     45.91213874	      0.80131799	     18.87313429	     -0.91339898	    -21.95722862	     -7.41075493	    100.85918359	      1.76032483	     -8.50759723
     11.08666667	      1.21764684	    -17.85583065	     -7.31490228	      2.15812177	      1.03770385	      1.05045561	     20.91982736	     20.65323547	     -7.91311852	     46.15793527	      0.80560795	     20.21797803	      2.51129653	    -22.07795093	     -5.03814874	    103.19253658	      1.80104953	     -7.17332394
     11.09333333	      1.09040528	    -18.14060498	     -6.61869088	      2.15589171	      1.03696135	      1.04928152	     19.76981355	     20.70144130	     -8.10038373	     46.00335163	      0.80290995	     21.38223246	      5.63703375	    -21.99881609	     -2.53363204	    105.15452351	      1.83529266	     -6.15217964
     11.10000000	      0.49280725	    -18.15486002	     -6.02100012	      2.15382409	      1.03621458	      1.04828247	     19.04217622	     20.54489387	     -8.23262554	     45.73059172	      0.79814939	     22.34397352	      9.32669963	    -21.51158311	     -0.00683838	    106.86507062	      1.86514734	     -5.32243808
     11.10666667	      0.45068595	    -18.14615101	     -5.20958238	      2.15209612	      1.03669275	      1.04709129	     17.53093500	     20.32825192	     -8.34392105	     45.10739527	      0.78727256	     23.11921906	     12.31937512	    -20.85374191	      2.36087225	    108.12973542	      1.88721990	     -4.68974494
     11.11333333	      0.04293026	    -17.93416879	     -4.52303928	      2.15051836	      1.03737789	      1.04615303	     16.31368759	     19.99235275	     -8.36346885	     44.33162616	      0.77373284	     23.60609549	     15.63705386	    -19.89000351	      4.57748502	    109.09271590	      1.90402708	     -4.27439123
     11.12000000	     -0.07189074	    -17.52942712	     -4.41546931	      2.14930604	      1.03920957	      1.04593730	     14.50749475	     19.69599945	     -7.49598725	     43.37721117	      0.75707516	     23.95781189	     18.09189370	    -18.92948733	      5.71643821	    109.52045078	      1.91149246	     -3.85248942
     11.12666667	     -0.41646732	    -17.20530673	     -3.40526959	      2.14817152	      1.04080803	      1.04469968	     13.07233793	     19.18853216	     -7.87905932	     42.19395483	      0.73642344	     24.01908472	     21.23355230	    -17.68680360	      7.82212996	    109.84873219	      1.91722206	     -3.62841842
     11.13333333	     -0.69444451	    -16.60965192	     -3.46418795	      2.14726545	      1.04335997	      1.04480909	     11.30210150	     18.75621481	     -6.86457292	     41.00550226	      0.71568103	     23.90542921	     23.56966404	    -16.65601898	      8.39085605	    109.65017761	      1.91375662	     -3.23845369
     11.14000000	     -1.06237663	    -15.95834478	     -3.38149198	      2.14673552	      1.04625760	      1.04480552	      9.55615000	     18.19956886	     -6.11571691	     39.60433819	      0.69122610	     23.59251944	     25.92977516	    -15.57856134	      8.91600311	    109.13971728	      1.90484741	     -2.87540046
